<?xml version="1.0" encoding="UTF-8" standalone="no"?>
<!-- Generator: Adobe Illustrator 16.0.0, SVG Export Plug-In . SVG Version: 6.00 Build 0)  -->

<svg
   xmlns:dc="http://purl.org/dc/elements/1.1/"
   xmlns:cc="http://creativecommons.org/ns#"
   xmlns:rdf="http://www.w3.org/1999/02/22-rdf-syntax-ns#"
   xmlns:svg="http://www.w3.org/2000/svg"
   xmlns="http://www.w3.org/2000/svg"
   xmlns:sodipodi="http://sodipodi.sourceforge.net/DTD/sodipodi-0.dtd"
   xmlns:inkscape="http://www.inkscape.org/namespaces/inkscape"
   version="1.1"
   id="Layer_1"
   x="0px"
   y="0px"
   width="512px"
   height="512px"
   viewBox="0 0 512 512"
   enable-background="new 0 0 512 512"
   xml:space="preserve"
   inkscape:version="0.91 r13725"
   sodipodi:docname="ncloud.svg"><metadata
     id="metadata4143"><rdf:RDF><cc:Work
         rdf:about=""><dc:format>image/svg+xml</dc:format><dc:type
           rdf:resource="http://purl.org/dc/dcmitype/StillImage" /><dc:title /></cc:Work></rdf:RDF></metadata><defs
     id="defs4141" /><sodipodi:namedview
     pagecolor="#ffffff"
     bordercolor="#666666"
     borderopacity="1"
     objecttolerance="10"
     gridtolerance="10"
     guidetolerance="10"
     inkscape:pageopacity="0"
     inkscape:pageshadow="2"
     inkscape:window-width="1920"
     inkscape:window-height="1018"
     id="namedview4139"
     showgrid="false"
     inkscape:zoom="1.6582031"
     inkscape:cx="125.78055"
     inkscape:cy="366.58386"
     inkscape:window-x="-8"
     inkscape:window-y="-8"
     inkscape:window-maximized="1"
     inkscape:current-layer="Layer_1" /><path
     style="stroke:#000000;stroke-width:3.49955297;stroke-miterlimit:4;stroke-dasharray:none;stroke-opacity:1"
     d="m 180.89795,94.279929 c -6.26714,0.02982 -12.40137,3.714958 -15.69229,9.352001 -8.41468,-3.46572 -18.92891,2.61446 -20.85646,11.97744 -0.55122,2.26745 -0.63368,4.66151 -0.35202,6.98395 -8.51346,1.29751 -14.83224,10.95936 -13.17747,19.83358 1.25732,7.93137 8.35526,14.5258 16.04914,14.21403 8.48353,0.0909 16.96746,-0.10383 25.45113,0.0299 7.85469,0.0136 15.74166,0.2106 23.56593,-0.45062 8.67077,-1.96802 15.48824,-11.2835 14.68392,-20.71509 -0.39404,-6.91073 -4.41548,-13.35979 -10.15155,-16.60362 -1.14568,-1.28084 -0.276,-3.0989 -0.35429,-4.59981 0.0792,-9.41411 -6.92943,-18.438284 -15.71939,-19.740836 -1.15333,-0.20433 -2.29586,-0.304783 -3.44665,-0.281027 z m 0.64532,0.65687 c 9.38457,0.02427 17.97116,8.983881 17.80532,19.010351 0.0241,1.68258 -0.18731,3.36286 -0.55362,4.99793 8.20511,3.51775 13.16399,14.08144 10.44743,23.09844 -2.19901,8.28361 -10.12191,14.5114 -18.28001,13.91283 -11.00725,-0.009 -22.01429,-0.0309 -33.02144,0.0424 -4.88361,-0.0474 -9.79085,0.02 -14.65492,-0.42168 -8.06821,-1.83462 -13.81381,-11.44086 -11.59417,-19.94586 1.46796,-6.43036 6.8535,-11.72956 13.09196,-12.48883 -1.62696,-8.05117 3.32479,-17.1195 10.96305,-19.10413 3.18445,-0.96895 6.68195,-0.8173 9.76404,0.41761 3.25337,-5.885099 9.60035,-9.660732 16.03236,-9.519051 z"
     id="path4137"
     inkscape:connector-curvature="0"
     inkscape:export-filename="C:\temp\nCloud\static\img\favicon.ico"
     inkscape:export-xdpi="16.84"
     inkscape:export-ydpi="16.84" /><rect
     style="fill:none;fill-opacity:1;stroke:none;stroke-width:0.5;stroke-miterlimit:4;stroke-dasharray:none;stroke-opacity:1"
     id="rect4143"
     width="85.535553"
     height="85.535553"
     x="128.42534"
     y="83.348885"
     inkscape:export-filename="C:\temp\nCloud\static\img\favicon.ico"
     inkscape:export-xdpi="16.84"
     inkscape:export-ydpi="16.84" /><text
     xml:space="preserve"
     style="font-style:normal;font-weight:normal;font-size:61.51692963px;line-height:125%;font-family:Sans;letter-spacing:0px;word-spacing:0px;fill:#000000;fill-opacity:1;stroke:none;stroke-width:1px;stroke-linecap:butt;stroke-linejoin:miter;stroke-opacity:1"
     x="151.23419"
     y="147.75029"
     id="text4156"
     sodipodi:linespacing="125%"
     inkscape:export-filename="C:\temp\nCloud\static\img\favicon.ico"
     inkscape:export-xdpi="16.84"
     inkscape:export-ydpi="16.84"><tspan
       sodipodi:role="line"
       id="tspan4158"
       x="151.23419"
       y="147.75029"
       style="font-weight:bold">n</tspan></text>
</svg>